<?xml version="1.0" encoding="UTF-8"?>
<svg width="244px" height="54px" viewBox="0 0 244 54" version="1.1" xmlns="http://www.w3.org/2000/svg" xmlns:xlink="http://www.w3.org/1999/xlink">
    <!-- Generator: Sketch 47.1 (45422) - http://www.bohemiancoding.com/sketch -->
    <title>GitHub btn</title>
    <desc>Created with Sketch.</desc>
    <defs></defs>
    <g id="Design" stroke="none" stroke-width="1" fill="none" fill-rule="evenodd">
        <g id="Launch" transform="translate(-66.000000, -475.000000)">
            <g id="GitHub-btn" transform="translate(66.000000, 475.000000)">
                <rect id="Rectangle-2" fill="#000000" x="0" y="0" width="244" height="54" rx="3"></rect>
                <g id="github" transform="translate(20.000000, 16.000000)" fill="#FFFFFF">
                    <path d="M0.4,11.3161481 C0.4,12.4976296 0.5084,13.5666667 0.7256,14.5228519 C0.9428,15.479037 1.2432,16.3097407 1.6268,17.0153704 C2.0108,17.721 2.4988,18.3414815 3.0916,18.8768148 C3.6844,19.4121481 4.3268,19.8501111 5.0192,20.1902963 C5.712,20.5300741 6.5028,20.8062963 7.3912,21.018963 C8.2796,21.2316296 9.1876,21.3803333 10.114,21.4654815 C11.0404,21.5506296 12.0584,21.593 13.1684,21.593 C14.2868,21.593 15.3092,21.5506296 16.2352,21.4654815 C17.1612,21.3803333 18.0712,21.2316296 18.964,21.018963 C19.8568,20.8062963 20.652,20.5300741 21.3488,20.1902963 C22.0456,19.8505185 22.6924,19.4125556 23.2892,18.8768148 C23.886,18.3414815 24.3784,17.7205926 24.7664,17.0153704 C25.1544,16.3101481 25.4568,15.479037 25.674,14.5228519 C25.8908,13.5666667 25.9996,12.4976296 25.9996,11.3161481 C25.9996,9.20822222 25.3068,7.38466667 23.9216,5.8462963 C23.9968,5.64218519 24.0656,5.41077778 24.128,5.15125926 C24.1904,4.89174074 24.2492,4.52222222 24.3032,4.04188889 C24.3576,3.56155556 24.3368,3.00707407 24.2404,2.37803704 C24.144,1.749 23.9672,1.10733333 23.7084,0.45262963 L23.5208,0.414333333 C23.3872,0.388666667 23.168,0.395185185 22.8636,0.433481481 C22.5592,0.471777778 22.2044,0.54837037 21.7996,0.662851852 C21.3948,0.777740741 20.8732,0.998555556 20.2348,1.3257037 C19.5964,1.65285185 18.9224,2.06311111 18.2132,2.55607407 C16.9948,2.21588889 15.3216,2.046 13.1932,2.046 C11.0732,2.046 9.4044,2.21588889 8.186,2.55607407 C7.4768,2.06311111 6.7984,1.65285185 6.1516,1.3257037 C5.5048,0.998555556 4.9896,0.777333333 4.6056,0.662851852 C4.2216,0.547962963 3.8628,0.473814815 3.5292,0.439592593 C3.1956,0.40537037 2.9844,0.395185185 2.8972,0.407814815 C2.8096,0.420444444 2.7408,0.435518519 2.6908,0.45262963 C2.432,1.10733333 2.2548,1.749 2.1588,2.37803704 C2.0628,3.00707407 2.042,3.56155556 2.096,4.04188889 C2.1504,4.52222222 2.2088,4.89174074 2.2712,5.15125926 C2.3336,5.41077778 2.4028,5.64218519 2.4776,5.8462963 C1.0924,7.38466667 0.3996,9.20822222 0.3996,11.3161481 L0.4,11.3161481 Z M3.542,14.5163333 C3.542,13.2924815 4.0888,12.1704815 5.182,11.1503333 C5.5076,10.8443704 5.8872,10.6125556 6.3212,10.4552963 C6.7552,10.298037 7.2456,10.2088148 7.792,10.1876296 C8.3388,10.1664444 8.8624,10.1705185 9.3632,10.2002593 C9.864,10.23 10.4816,10.2703333 11.216,10.3212593 C11.9504,10.3721852 12.5848,10.3978519 13.1188,10.3978519 C13.6528,10.3978519 14.2872,10.3721852 15.0216,10.3212593 C15.756,10.2703333 16.3736,10.23 16.8744,10.2002593 C17.3752,10.1705185 17.8988,10.166037 18.4456,10.1876296 C18.9924,10.2088148 19.4824,10.298037 19.9164,10.4552963 C20.3504,10.6125556 20.73,10.843963 21.0556,11.1503333 C22.1488,12.1533704 22.6956,13.2753704 22.6956,14.5163333 C22.6956,15.2472222 22.606,15.8954074 22.4264,16.4608889 C22.2468,17.0263704 22.0176,17.5001852 21.738,17.8823333 C21.4584,18.2648889 21.0704,18.59 20.574,18.8576667 C20.0776,19.1253333 19.5936,19.3314815 19.122,19.4761111 C18.6504,19.6207407 18.0452,19.7331852 17.3068,19.8138519 C16.5684,19.8945185 15.9088,19.9434074 15.3288,19.9605185 C14.7488,19.9776296 14.0124,19.9861852 13.1192,19.9861852 C12.226,19.9861852 11.4896,19.9776296 10.9096,19.9605185 C10.3296,19.9434074 9.6704,19.8945185 8.9316,19.8138519 C8.1928,19.7331852 7.588,19.6203333 7.1164,19.4761111 C6.6448,19.3314815 6.1608,19.1253333 5.6644,18.8576667 C5.168,18.59 4.7796,18.2648889 4.5004,17.8823333 C4.2208,17.4997778 3.9912,17.025963 3.812,16.4608889 C3.6328,15.8958148 3.5428,15.2476296 3.5428,14.5163333 L3.542,14.5163333 Z M16.4,14.2592593 C16.4,12.9091111 17.1164,11.8148148 18,11.8148148 C18.8836,11.8148148 19.6,12.9091111 19.6,14.2592593 C19.6,15.6094074 18.8836,16.7037037 18,16.7037037 C17.1164,16.7037037 16.4,15.6094074 16.4,14.2592593 L16.4,14.2592593 Z M6.8,14.2592593 C6.8,12.9091111 7.5164,11.8148148 8.4,11.8148148 C9.2836,11.8148148 10,12.9091111 10,14.2592593 C10,15.6094074 9.2836,16.7037037 8.4,16.7037037 C7.5164,16.7037037 6.8,15.6094074 6.8,14.2592593 L6.8,14.2592593 Z" id="Shape"></path>
                </g>
                <text id="Sign-In-with-Github" font-family="HelveticaNeue-Bold, Helvetica Neue" font-size="16" font-weight="bold" fill="#FFFFFF">
                    <tspan x="78" y="32">Sign In with Github</tspan>
                </text>
                <path d="M63.5,0.5 L63.5,53.5" id="Line" stroke="#404040" stroke-linecap="square"></path>
            </g>
        </g>
    </g>
</svg>