<?xml version="1.0" encoding="UTF-8"?>
<svg width="249px" height="110px" viewBox="0 0 249 110" version="1.1" xmlns="http://www.w3.org/2000/svg" xmlns:xlink="http://www.w3.org/1999/xlink">
    <!-- Generator: Sketch 47.1 (45422) - http://www.bohemiancoding.com/sketch -->
    <title>Logo</title>
    <desc>Created with Sketch.</desc>
    <defs></defs>
    <g id="Design" stroke="none" stroke-width="1" fill="none" fill-rule="evenodd">
        <g id="Launch" transform="translate(-63.000000, -104.000000)" fill="#FFFFFF">
            <g id="Logo" transform="translate(63.000000, 104.000000)">
                <polygon id="Fill-2" points="178.905742 0.000505747126 177.117239 1.78832184 246.813224 71.5068276 248.601726 69.7177471"></polygon>
                <path d="M178.011617,108.735506 L247.707602,39.0182644 L178.011617,108.735506 Z" id="Fill-3"></path>
                <polygon id="Fill-4" points="177.117492 107.841092 178.905994 109.630172 248.601979 39.9116667 246.813477 38.1238506"></polygon>
                <path d="M70.5892249,108.735506 L0.894504061,39.0182644 L70.5892249,108.735506 Z" id="Fill-5"></path>
                <polygon id="Fill-6" points="0 39.9122989 69.6959848 109.62954 71.4832234 107.841724 1.78850254 38.1232184"></polygon>
                <path d="M0.894124873,70.6125402 L70.5888457,0.894034483 L0.894124873,70.6125402 Z" id="Fill-7"></path>
                <polygon id="Fill-8" points="69.6962376 0.000505747126 0.000252791878 69.7177471 1.78875533 71.5068276 71.4834761 1.78832184"></polygon>
                <path d="M83.6748701,67.2081034 C84.8882711,65.9943103 85.2927381,64.477069 85.2927381,62.9598276 C85.2927381,61.4918966 85.0399462,60.1263793 83.9782203,59.0137356 C82.5625858,57.5976437 79.4772609,56.5343103 64.7116873,55.8768391 C50.6033726,55.1687931 45.7990629,53.955 43.6250528,51.7802874 C42.310535,50.4147701 41.7038345,48.5422414 41.7038345,46.5192529 C41.7038345,44.3445402 42.310535,42.2191379 43.928403,40.6007471 C46.3552051,38.1731609 51.6650985,36.4017816 63.4982863,36.4017816 C73.0550832,36.4017816 80.9447178,38.0720115 85.6466467,39.6904023 L85.6466467,42.5225862 C80.0852254,40.5501724 71.8416822,39.032931 63.4982863,39.032931 C52.4234741,39.032931 48.2271289,40.3984483 46.3552051,42.2697126 C45.3440376,43.2812069 44.8890122,44.6985632 44.8890122,46.316954 C44.8890122,47.8847701 45.3440376,49.0479885 46.2035299,49.8571839 C47.821398,51.4768391 51.8167736,52.4377586 65.3689462,53.0952299 C80.8941594,53.8538506 84.3826873,55.0676437 86.5061391,57.193046 C87.9735959,58.6597126 88.4286213,60.6827011 88.4286213,62.7562644 C88.4286213,64.8816667 87.8206569,67.2081034 86.2027888,68.8264943 C84.1298954,70.9013218 79.8817279,73.2277586 65.5206213,73.2277586 C55.1548904,73.2277586 46.1529716,71.5082184 40.4398751,69.1805172 L40.4398751,66.3483333 C46.0518548,68.6747701 56.0143827,70.6484483 65.6217381,70.6484483 C78.5166518,70.6484483 82.1581188,68.7253448 83.6748701,67.2081034" id="Fill-9"></path>
                <path d="M151.488693,54.5117011 L151.488693,56.9898621 C151.488693,61.1888276 150.730317,64.8807816 147.84849,67.7648046 C144.105906,71.557908 137.077028,73.3292874 126.153891,73.3292874 C112.450043,73.3292874 106.534713,70.3946897 103.196596,67.0567586 C100.16183,64.0715862 98.6450787,59.7714713 98.6450787,54.8151494 C98.6450787,49.9587126 100.112536,45.6092874 103.196596,42.5229655 C106.534713,39.1837701 112.24781,36.3010115 125.142723,36.3010115 C135.863627,36.3010115 144.257581,38.3745747 148.556307,40.3482529 L148.556307,43.4333103 C143.499206,40.8034253 134.903018,38.9827356 125.142723,38.9827356 C113.664708,38.9827356 108.708723,41.2585977 105.776338,44.191931 C103.348272,46.6713563 101.780962,50.1104368 101.780962,54.8151494 C101.780962,59.468023 103.247155,62.9589425 105.623398,65.3372184 C108.557048,68.219977 113.916236,70.6981379 126.153891,70.6981379 C136.06586,70.6981379 142.285805,69.2314713 145.470982,65.9934253 C148.252957,63.2623908 148.303515,59.7221609 148.303515,57.1921609 L121.755312,57.1921609 L121.755312,54.5117011 L151.488693,54.5117011 Z" id="Fill-11"></path>
                <polygon id="Fill-13" points="202.879415 53.9772165 202.879415 56.3135502 167.928357 56.3135502 167.928357 70.2466948 165.195069 70.2466948 165.195069 39.3828454 203.497462 39.3828454 203.497462 41.7202811 167.928357 41.7202811 167.928357 53.9772165"></polygon>
            </g>
        </g>
    </g>
</svg>